P1
# Image I1 codée sur un bit
9 9
0 0 0 0 0 0 0 0 0
0 1 1 1 1 1 1 0 0
0 1 0 0 0 0 1 0 0
0 1 0 0 0 0 1 0 0
0 1 0 0 0 0 1 0 0
0 1 0 0 0 0 1 0 0
0 1 1 1 1 1 1 0 0
0 0 0 0 0 0 0 0 0
0 0 0 0 0 0 0 0 0
